<svg width="47" height="66" viewBox="0 0 47 66" fill="none" xmlns="http://www.w3.org/2000/svg">
<path d="M28.8824 0.00106121C28.823 0.0122634 28.7637 0.0290645 28.7097 0.045867H4.83532C2.191 0.045867 0 2.28056 0 5.01931V60.1304C0 63.3621 2.57956 66 5.69877 66H41.2729C44.3921 66 46.9717 63.3621 46.9717 60.1304V18.9539C47.0094 18.7635 47.0094 18.5619 46.9717 18.3714V17.9682C46.9825 17.5873 46.8422 17.2121 46.5831 16.9377L30.6956 0.449119C30.4312 0.180284 30.0696 0.0346663 29.7027 0.045867H29.2709C29.1468 0.0122634 29.0119 -0.00453916 28.8824 0.00106121ZM4.83532 2.91344H27.6304V14.8766C27.6304 17.761 29.9023 20.1189 32.6816 20.1189H44.2086V60.1304C44.2086 61.8051 42.9027 63.1324 41.2729 63.1324H5.69877C4.06901 63.1324 2.76304 61.8051 2.76304 60.1304V5.01931C2.76304 3.83756 3.67506 2.91344 4.83532 2.91344ZM30.3934 4.25761L42.9135 17.2513H32.6816C31.3918 17.2513 30.3934 16.2152 30.3934 14.8766V4.25761Z" fill="black"/>
</svg>
