<svg width="76" height="80" viewBox="0 0 76 80" fill="none" xmlns="http://www.w3.org/2000/svg">
<path d="M38 0C17.0346 0 0 17.8833 0 39.8931C0 61.903 17.0346 79.7862 38 79.7862C58.9654 79.7862 76 61.903 76 39.8931C76 17.8833 58.9654 0 38 0ZM38 3.46897C57.1791 3.46897 72.6956 19.7585 72.6956 39.8931C72.6956 60.0277 57.1791 76.3173 38 76.3173C18.8208 76.3173 3.30435 60.0277 3.30435 39.8931C3.30435 19.7585 18.8208 3.46897 38 3.46897ZM21.6719 26.1595C20.4873 26.1595 19.1854 26.53 18.0222 27.2741C12.9534 30.5158 9.68143 37.9112 10.339 43.5518C10.5472 45.3435 11.2563 47.3033 12.5946 48.6197C13.4967 49.4974 15.1295 50.5778 17.0509 50.5778C19.1327 50.5778 20.8927 49.7368 22.4721 48.6875C23.5428 47.9694 24.4342 47.0975 25.1892 46.2077C25.7195 47.3854 26.8226 48.1793 27.9676 48.1793C28.8647 48.1793 29.7065 47.707 30.3426 46.8277C30.5342 47.6394 31.0735 48.1793 32.0367 48.1793C32.7405 48.1793 34.245 47.4428 35.6411 46.3466L35.4991 47.1292C35.4612 47.2957 35.4472 47.4639 35.4604 47.6339C35.5034 48.0068 35.7466 48.1759 36.0671 48.1759C36.7395 48.1759 37.7194 47.4993 37.9193 46.4516L38.2259 44.9678C38.6191 43.1102 41.2064 40.303 41.9433 40.303C42.0374 40.303 42.1107 40.371 42.1272 40.5063C42.1817 40.9798 41.3052 42.5328 40.9236 45.0322C40.8509 45.4571 40.8387 45.8894 40.8816 46.3161C41.0105 47.4314 41.6403 48.1726 42.7952 48.1726C43.7931 48.1726 45.9236 47.2904 47.4419 45.5437C47.5559 46.5202 47.7528 47.3538 48.0486 47.888C48.1758 48.1239 48.4653 48.1895 48.723 48.1895C49.0452 48.1895 49.4927 48.0569 49.9718 47.7864C51.125 47.1099 52.6325 45.5867 54.0732 43.3926C54.2649 43.4255 54.422 43.4264 54.6153 43.4264C55.1919 43.4264 55.8372 43.212 56.4353 42.8234C56.2089 43.5849 56.1251 44.3581 56.2094 45.0796C56.4126 46.8349 57.8529 48.1895 59.3266 48.1895C60.1907 48.1895 61.0365 47.7164 61.6726 46.8717C61.8659 47.9887 62.5487 49.1705 64.1992 49.8799C64.3033 49.9476 64.4325 49.9477 64.5284 49.9477C64.8489 49.9477 65.0454 49.7135 65.0156 49.4429C65.0041 49.3389 64.9173 49.17 64.7736 49.0364C64.3771 48.6652 63.9535 48.0211 63.8378 47.0411C63.7833 46.5676 63.8102 45.9949 63.9572 45.3201C64.3157 43.7331 64.3934 43.294 64.3702 43.0911C64.324 42.6852 64.0486 42.5152 63.7281 42.5152C63.054 42.5152 62.1428 43.2222 61.9049 44.2022C61.5348 45.6869 60.5282 46.7023 59.8558 46.7023C59.0231 46.7023 58.5951 45.7547 58.4811 44.7747C58.197 42.3447 59.6732 39.3375 61.821 39.3375C62.462 39.3375 63.1325 39.6096 63.2118 40.2861C63.334 41.332 62.2796 41.0939 62.3308 41.5327C62.3821 41.9716 63.1037 42.1086 63.5829 42.1086C64.0637 42.1086 65.4672 41.7713 65.2673 40.0489C65.1104 38.6978 63.752 38.0536 62.1824 38.0536C60.3386 38.0536 58.766 39.038 57.6938 40.3979C57.5517 40.4846 57.4023 40.6339 57.242 40.8247C56.8885 41.2653 56.2483 41.6716 55.4156 41.6716C55.3198 41.6716 55.0961 41.6378 55.0961 41.6378C55.638 40.5242 56.0222 39.3766 56.0222 38.3619C56.0222 36.7401 55.0628 35.9295 54.0054 35.9295C52.6606 35.9295 51.2819 37.1802 51.2819 39.6119C51.2819 41.0637 51.8257 42.246 52.7889 42.8878C51.7001 44.7801 50.1933 46.3364 49.9686 46.3364C49.8414 46.3364 49.8128 46.2007 49.7814 46.0654C49.6212 45.4254 49.4587 44.173 49.4587 43.396C49.4587 42.0118 49.7153 40.6275 50.1945 39.1411C50.2589 38.9728 50.2913 38.8021 50.2913 38.6668C50.2913 38.2626 50.035 38.0604 49.6814 38.0604C48.9792 38.0604 47.9207 38.9019 47.6646 39.7813C47.4085 40.6243 47.3128 41.7739 47.3128 43.1927C47.3128 43.4563 47.3175 43.7152 47.3257 43.9719C46.0205 45.7827 44.401 46.4279 43.8988 46.4279C43.2693 46.4279 43.1484 45.8825 43.2211 45.52C43.5615 43.8168 44.0752 41.8363 44.5312 40.5198C44.7444 39.8781 44.8387 39.3065 44.7991 38.9683C44.728 38.3595 44.3085 38.057 43.7632 38.057C42.4812 38.057 40.3379 39.4702 38.9616 41.3972L39.4005 39.3138C39.4418 39.1126 39.4541 38.9392 39.4392 38.8057C39.3929 38.3998 39.1498 38.2332 38.8293 38.2332C37.2581 38.2332 36.9788 39.0695 36.8351 39.8829C36.7987 40.0789 36.3436 42.5596 35.9735 44.5647C34.7972 45.673 33.5243 46.3906 33.179 46.3906C32.7428 46.3906 32.6 46.031 32.5885 45.7673C32.572 45.4655 32.8916 44.0008 32.9693 43.562C33.0106 43.3607 33.0229 43.1925 33.008 43.0572C32.965 42.6843 32.721 42.5152 32.3691 42.5152C31.6933 42.5152 30.7789 43.1893 30.5426 44.2022C30.1692 45.6887 29.2015 46.7023 28.529 46.7023C27.6963 46.7023 27.2328 45.759 27.1221 44.812C26.8776 42.715 28.1523 39.3375 30.4587 39.3375C31.0998 39.3375 31.767 39.5741 31.8463 40.2488C31.9735 41.3294 30.9496 41.0592 31.0041 41.5327C31.0536 41.9716 31.7745 42.1053 32.2238 42.1053C32.7377 42.1053 34.1049 41.7671 33.9083 40.0794C33.7513 38.7265 32.426 38.0502 30.8234 38.0502C27.1192 38.0502 24.6302 41.8746 24.8665 44.9204C23.9082 46.0912 22.9522 46.8064 21.2653 47.7118C20.2988 48.2183 19.2144 48.5215 18.19 48.5215C15.1154 48.5215 13.6132 45.5497 13.3142 42.9827C12.5476 36.3968 18.0628 27.3452 21.9074 27.3452C22.8046 27.3452 23.6045 28.1622 23.7532 29.4388C23.9829 31.423 23.9475 32.8286 21.9913 34.544C21.7782 34.7296 21.7161 35.0344 21.8268 35.2147C21.992 35.4836 22.5183 35.5092 23.579 34.9437C25.6591 33.8423 26.4095 32.1425 26.1799 30.1739C25.9254 27.9885 24.1072 26.1595 21.6719 26.1595ZM53.2374 37.2338C53.5893 37.2338 54.0377 37.7727 54.0377 38.9886C54.0377 39.6321 53.9107 40.2744 53.686 40.9162C53.1094 40.2762 52.6598 39.2954 52.6598 38.3483C52.6598 37.8419 52.8211 37.2355 53.2374 37.2338Z" fill="black"/>
</svg>
