<svg width="63" height="68" viewBox="0 0 63 68" fill="none" xmlns="http://www.w3.org/2000/svg">
<path d="M37.1251 0.0101772C37.1 0.0208035 37.0698 0.036743 37.0447 0.0526825L1.04481 7.27858C0.432087 7.40078 -0.00987682 7.9746 0.000167798 8.63875V59.3901C-0.00987682 60.0542 0.432087 60.628 1.04481 60.7502L37.0447 67.9761C37.4164 68.0505 37.8031 67.9496 38.0994 67.6945C38.3907 67.4395 38.5665 67.0623 38.5715 66.6585V59.8576H60.4286C61.8348 59.8576 63 58.625 63 57.1373V10.8915C63 9.40385 61.8348 8.17119 60.4286 8.17119H38.5715V1.37035C38.5765 0.977173 38.4158 0.605251 38.1396 0.344907C37.8633 0.0845614 37.4917 -0.0376413 37.1251 0.0101772ZM36.0001 2.98555V8.89378C35.8293 9.27102 35.8293 9.70669 36.0001 10.0839V58.2424C35.9649 58.4231 35.9649 58.6143 36.0001 58.795V65.0433L2.57159 58.2849V9.74389L36.0001 2.98555ZM38.5715 10.8915H60.4286V57.1373H38.5715V50.3364H43.7143V47.6161H38.5715V39.4551H43.7143V36.7347H38.5715V29.9339H43.7143V27.2136H38.5715V20.4127H43.7143V17.6924H38.5715V10.8915ZM46.2858 17.6924V20.4127H56.5714V17.6924H46.2858ZM8.59836 21.3478L15.6296 34.0569L7.9555 46.766H14.3841L18.5626 38.5625C18.8539 37.7708 19.0448 37.1651 19.1251 36.7772H19.1653C19.331 37.6061 19.4917 38.1693 19.6474 38.4775L23.826 46.766H30.2144L22.8215 33.9294L30.0135 21.3478H23.9867L20.1698 28.8713C19.8031 29.8542 19.542 30.6299 19.4064 31.124H19.3662C19.1553 30.2952 18.9142 29.5567 18.643 28.9563L15.1876 21.3478H8.59836ZM46.2858 27.2136V29.9339H56.5714V27.2136H46.2858ZM46.2858 36.7347V39.4551H56.5714V36.7347H46.2858ZM46.2858 47.6161V50.3364H56.5714V47.6161H46.2858Z" fill="black"/>
</svg>
