<svg width="46" height="70" viewBox="0 0 46 70" fill="none" xmlns="http://www.w3.org/2000/svg">
<path d="M12.2188 0C5.48769 0 0 5.62784 0 12.5308C0 17.3961 2.80302 21.513 6.76917 23.5874C2.80302 25.6618 0 29.7787 0 34.644C0 39.5093 2.80302 43.6262 6.76917 45.7006C2.80302 47.775 0 51.8919 0 56.7572C0 63.6602 5.48769 69.288 12.2188 69.288C18.9498 69.288 24.4375 63.6602 24.4375 56.7572V45.7006V40.7712C26.3657 44.5238 30.0898 47.1748 34.5 47.1748C40.8343 47.1748 46 41.8771 46 35.3811C46 30.0419 42.4439 25.6936 37.6838 24.2497C42.4832 22.558 46 18.0152 46 12.5308C46 5.62784 40.5123 0 33.7812 0H23H12.2188ZM12.2188 2.94843H21.5625V22.1132H12.2188C7.04156 22.1132 2.875 17.8402 2.875 12.5308C2.875 7.2214 7.04156 2.94843 12.2188 2.94843ZM24.4375 2.94843H33.7812C38.9584 2.94843 43.125 7.2214 43.125 12.5308C43.125 17.8402 38.9584 22.1132 33.7812 22.1132H24.4375V2.94843ZM12.2188 25.0616H21.5625V44.2264H12.2188C7.04156 44.2264 2.875 39.9534 2.875 34.644C2.875 29.3346 7.04156 25.0616 12.2188 25.0616ZM24.4375 25.0616H29.2441C27.1815 26.1763 25.5245 27.8757 24.4375 29.991V25.0616ZM34.5 26.5358C39.2805 26.5358 43.125 30.4785 43.125 35.3811C43.125 40.2837 39.2805 44.2264 34.5 44.2264C29.7195 44.2264 25.875 40.2837 25.875 35.3811C25.875 30.4785 29.7195 26.5358 34.5 26.5358ZM12.2188 47.1748H21.5625V56.7572C21.5625 62.0666 17.3959 66.3396 12.2188 66.3396C7.04156 66.3396 2.875 62.0666 2.875 56.7572C2.875 51.4478 7.04156 47.1748 12.2188 47.1748Z" fill="black"/>
</svg>
