<svg width="66" height="66" viewBox="0 0 66 66" fill="none" xmlns="http://www.w3.org/2000/svg">
<g clip-path="url(#clip0_597_13)">
<path d="M24.75 52.2502C12.925 56.1002 12.925 45.3752 8.25 44.0002M41.25 57.7502V48.1252C41.25 45.3752 41.525 44.2752 39.875 42.6252C47.575 41.8002 55 38.7752 55 26.1252C54.9967 22.8389 53.7145 19.6828 51.425 17.3252C52.4988 14.4706 52.3999 11.3072 51.15 8.52523C51.15 8.52523 48.125 7.70023 41.525 12.1002C35.9349 10.6443 30.0651 10.6443 24.475 12.1002C17.875 7.70023 14.85 8.52523 14.85 8.52523C13.6001 11.3072 13.5012 14.4706 14.575 17.3252C12.2855 19.6828 11.0033 22.8389 11 26.1252C11 38.7752 18.425 41.8002 26.125 42.6252C24.475 44.2752 24.475 45.9252 24.75 48.1252V57.7502" stroke="black" stroke-width="3" stroke-linecap="round" stroke-linejoin="round"/>
</g>
<defs>
<clipPath id="clip0_597_13">
<rect width="66" height="66" fill="white"/>
</clipPath>
</defs>
</svg>
