<svg width="66" height="66" viewBox="0 0 66 66" fill="none" xmlns="http://www.w3.org/2000/svg">
<path d="M57.3101 12.6774C55.9055 11.2722 54.2378 10.1574 52.4023 9.39687C50.5668 8.63633 48.5994 8.24487 46.6126 8.24487C44.6257 8.24487 42.6584 8.63633 40.8229 9.39687C38.9873 10.1574 37.3197 11.2722 35.9151 12.6774L33.0001 15.5924L30.0851 12.6774C27.2479 9.84024 23.3999 8.24634 19.3876 8.24634C15.3752 8.24634 11.5272 9.84024 8.69008 12.6774C5.85293 15.5145 4.25903 19.3626 4.25903 23.3749C4.25903 27.3872 5.85293 31.2352 8.69008 34.0724L11.6051 36.9874L33.0001 58.3824L54.3951 36.9874L57.3101 34.0724C58.7153 32.6678 59.8301 31.0001 60.5906 29.1646C61.3511 27.3291 61.7426 25.3617 61.7426 23.3749C61.7426 21.3881 61.3511 19.4207 60.5906 17.5852C59.8301 15.7497 58.7153 14.082 57.3101 12.6774Z" stroke="black" stroke-width="3" stroke-linecap="round" stroke-linejoin="round"/>
</svg>
