<svg width="66" height="66" viewBox="0 0 66 66" fill="none" xmlns="http://www.w3.org/2000/svg">
<g clip-path="url(#clip0_597_8)">
<path d="M11 22C11 19.0826 12.1589 16.2847 14.2218 14.2218C16.2847 12.1589 19.0826 11 22 11H44C46.9174 11 49.7153 12.1589 51.7782 14.2218C53.8411 16.2847 55 19.0826 55 22V44C55 46.9174 53.8411 49.7153 51.7782 51.7782C49.7153 53.8411 46.9174 55 44 55H22C19.0826 55 16.2847 53.8411 14.2218 51.7782C12.1589 49.7153 11 46.9174 11 44V22Z" stroke="black" stroke-width="2" stroke-linecap="round" stroke-linejoin="round"/>
<path d="M24.75 33C24.75 35.188 25.6192 37.2865 27.1664 38.8336C28.7135 40.3808 30.812 41.25 33 41.25C35.188 41.25 37.2865 40.3808 38.8336 38.8336C40.3808 37.2865 41.25 35.188 41.25 33C41.25 30.812 40.3808 28.7135 38.8336 27.1664C37.2865 25.6192 35.188 24.75 33 24.75C30.812 24.75 28.7135 25.6192 27.1664 27.1664C25.6192 28.7135 24.75 30.812 24.75 33Z" stroke="black" stroke-width="2" stroke-linecap="round" stroke-linejoin="round"/>
<path d="M45.375 20.625V20.6517" stroke="black" stroke-width="2" stroke-linecap="round" stroke-linejoin="round"/>
</g>
<defs>
<clipPath id="clip0_597_8">
<rect width="66" height="66" fill="white"/>
</clipPath>
</defs>
</svg>
