<svg width="54" height="57" viewBox="0 0 54 57" fill="none" xmlns="http://www.w3.org/2000/svg">
<path d="M3.415 0.344727C1.545 0.344727 0 1.9667 0 3.92986V53.1978C0 55.161 1.545 56.783 3.415 56.783H50.345C52.215 56.783 53.76 55.1663 53.76 53.1978V3.92986C53.76 1.9667 52.22 0.344727 50.345 0.344727H3.415ZM3.415 3.03226H50.345C50.82 3.03226 51.2 3.43119 51.2 3.92986V53.1978C51.2 53.6965 50.82 54.0954 50.345 54.0954H3.415C2.94 54.0954 2.56 53.6965 2.56 53.1978V3.92986C2.56 3.43119 2.94 3.03226 3.415 3.03226ZM24.32 25.8763V42.7731C24.32 45.3662 23.385 46.0328 21.76 46.0328C20.06 46.0328 18.88 44.92 18.1 43.4765L14.08 46.0328C15.245 48.6206 18.1 51.4079 22.06 51.4079C26.44 51.4079 29.44 48.9618 29.44 43.592V25.8763H24.32ZM40.26 25.8763C35.9 25.8763 33.105 28.8053 33.105 32.6529C33.105 36.8259 35.45 38.7996 38.975 40.3743L40.195 40.9255C42.42 41.949 43.52 42.5737 43.52 44.3321C43.52 45.7966 42.46 46.8569 40.435 46.8569C38.025 46.8569 36.885 45.1405 35.84 43.3453L32 46.0328C33.435 49.0091 36.01 51.4079 40.545 51.4079C45.185 51.4079 48.64 48.8778 48.64 44.2639C48.64 39.9806 46.3 38.0752 42.145 36.2065L40.925 35.6606C38.83 34.7053 37.92 34.0859 37.92 32.5479C37.92 31.3039 38.83 30.3485 40.26 30.3485C41.665 30.3485 42.565 30.9732 43.4 32.5479L47.205 29.9864C45.6 27.0101 43.365 25.8763 40.26 25.8763Z" fill="black"/>
</svg>
