<svg width="66" height="66" viewBox="0 0 66 66" fill="none" xmlns="http://www.w3.org/2000/svg">
<path d="M44 22C48.3761 22 52.5729 23.7384 55.6673 26.8327C58.7616 29.9271 60.5 34.1239 60.5 38.5V57.75H49.5V38.5C49.5 37.0413 48.9205 35.6424 47.8891 34.6109C46.8576 33.5795 45.4587 33 44 33C42.5413 33 41.1424 33.5795 40.1109 34.6109C39.0795 35.6424 38.5 37.0413 38.5 38.5V57.75H27.5V38.5C27.5 34.1239 29.2384 29.9271 32.3327 26.8327C35.4271 23.7384 39.6239 22 44 22Z" stroke="black" stroke-width="3" stroke-linecap="round" stroke-linejoin="round"/>
<path d="M16.5 24.75H5.5V57.75H16.5V24.75Z" stroke="black" stroke-width="3" stroke-linecap="round" stroke-linejoin="round"/>
<path d="M11 16.5C14.0376 16.5 16.5 14.0376 16.5 11C16.5 7.96243 14.0376 5.5 11 5.5C7.96243 5.5 5.5 7.96243 5.5 11C5.5 14.0376 7.96243 16.5 11 16.5Z" stroke="black" stroke-width="3" stroke-linecap="round" stroke-linejoin="round"/>
</svg>
