<svg width="75" height="75" viewBox="0 0 75 75" fill="none" xmlns="http://www.w3.org/2000/svg">
<path d="M9 6C7.36041 6 6 7.36041 6 9V66C6 67.6396 7.36041 69 9 69H66C67.6396 69 69 67.6396 69 66V9C69 7.36041 67.6396 6 66 6H9ZM9 9H66V66H9V9ZM27.8789 21C25.7189 21 23.9909 21.24 22.5029 21.624L22.5 54H26.1973V40.2451C26.7253 40.2916 27.2051 40.292 27.8291 40.292C30.7091 40.292 33.7329 39.0943 35.4609 36.6943C36.7104 35.0623 37.4268 33.0463 37.4268 30.0703C37.4268 27.2398 36.6116 24.8856 35.0771 23.3496C33.3971 21.7176 30.8534 21 27.8789 21ZM28.4648 23.4609C32.5913 23.4609 33.9346 26.4331 33.9346 29.7451C33.9346 34.3051 31.4862 36.7061 27.8877 36.7061C27.2637 36.7061 26.8314 36.6588 26.3994 36.6123V23.7012C26.8794 23.5557 27.6008 23.4609 28.4648 23.4609ZM47.5752 30C43.8387 30 40.9512 32.653 40.9512 36.46C40.9512 39.1105 42.6413 41.1349 45.7793 43.1104C48.2183 44.6524 48.8643 45.906 48.8643 47.6895C48.8643 49.761 47.4731 51.0615 45.3311 51.0615C43.7861 51.0615 42.2923 50.3869 41.4463 49.8574L40.5 52.6494C41.5455 53.4684 43.4884 54 45.2314 54C49.2154 54 52.5 51.7351 52.5 47.0596C52.5 43.8316 50.3109 41.6613 47.5254 39.9258C45.1344 38.3853 44.5371 37.4688 44.5371 35.9268C44.5371 34.3863 45.5806 32.9414 47.6221 32.9414C48.9166 32.9414 49.9144 33.375 50.8594 34.002L51.8555 31.2041C50.8595 30.5786 49.4682 30 47.5752 30Z" fill="black"/>
</svg>
