<svg width="46" height="66" viewBox="0 0 46 66" fill="none" xmlns="http://www.w3.org/2000/svg">
<path d="M28.2679 0.00106121C28.2098 0.0122634 28.1517 0.0290645 28.0989 0.045867H4.73244C2.14439 0.045867 0 2.28056 0 5.01931V60.1304C0 63.3621 2.52467 66 5.57752 66H40.3948C43.4476 66 45.9723 63.3621 45.9723 60.1304V18.9539C46.0092 18.7635 46.0092 18.5619 45.9723 18.3714V17.9682C45.9828 17.5873 45.8455 17.2121 45.592 16.9377L30.0425 0.449119C29.7837 0.180284 29.4299 0.0346663 29.0707 0.045867H28.6482C28.5267 0.0122634 28.3946 -0.00453916 28.2679 0.00106121ZM4.73244 2.91344H27.0425V14.8766C27.0425 17.761 29.2661 20.1189 31.9862 20.1189H43.268V60.1304C43.268 61.8051 41.9898 63.1324 40.3948 63.1324H5.57752C3.98243 63.1324 2.70425 61.8051 2.70425 60.1304V5.01931C2.70425 3.83756 3.59687 2.91344 4.73244 2.91344ZM29.7468 4.25761L42.0004 17.2513H31.9862C30.7239 17.2513 29.7468 16.2152 29.7468 14.8766V4.25761ZM12.1691 31.5891V51.6621H33.8031V31.5891H12.1691ZM14.8734 34.4567H21.634V37.3243H14.8734V34.4567ZM24.3383 34.4567H31.0989V37.3243H24.3383V34.4567ZM14.8734 40.1919H21.634V43.0594H14.8734V40.1919ZM24.3383 40.1919H31.0989V43.0594H24.3383V40.1919ZM14.8734 45.927H21.634V48.7946H14.8734V45.927ZM24.3383 45.927H31.0989V48.7946H24.3383V45.927Z" fill="black"/>
</svg>
