<svg width="64" height="68" viewBox="0 0 64 68" fill="none" xmlns="http://www.w3.org/2000/svg">
<path d="M37.7144 0.0101772C37.6888 0.0208035 37.6582 0.036743 37.6327 0.0526825L1.06139 7.27858C0.438945 7.40078 -0.0100336 7.9746 0.000170461 8.63875V59.3901C-0.0100336 60.0542 0.438945 60.628 1.06139 60.7502L37.6327 67.9761C38.0103 68.0505 38.4031 67.9496 38.7041 67.6945C39.0001 67.4395 39.1786 67.0623 39.1837 66.6585V59.8576H61.3878C62.8163 59.8576 64 58.625 64 57.1373V10.8915C64 9.40385 62.8163 8.17119 61.3878 8.17119H39.1837V1.37035C39.1888 0.977173 39.0256 0.605251 38.745 0.344907C38.4644 0.0845614 38.0868 -0.0376413 37.7144 0.0101772ZM36.5715 2.98555V9.10631C36.495 9.37197 36.495 9.64825 36.5715 9.91391V58.2424C36.5358 58.4231 36.5358 58.6143 36.5715 58.795V65.0433L2.61241 58.2849V9.74389L36.5715 2.98555ZM39.1837 10.8915H61.3878V57.1373H39.1837V50.3364H52.2449V47.6161H39.1837V40.0502C40.3878 40.5496 41.7297 40.8152 43.1021 40.8152C48.8572 40.8152 53.551 35.9271 53.551 29.9339V28.5737H44.4082V19.0525H43.1021C41.7194 19.0525 40.398 19.3129 39.1837 19.8176V10.8915ZM45.7143 14.972V27.2136H57.4694V25.8534C57.4694 19.8601 52.7755 14.972 47.0205 14.972H45.7143ZM48.3266 17.9474C51.5817 18.5319 54.051 21.1034 54.6123 24.4932H48.3266V17.9474ZM10.6532 21.3053V46.766H16.1634V38.0099H18.7756C21.7297 38.0099 24.1124 37.2076 25.8777 35.6296C27.643 34.0516 28.5307 31.9795 28.5307 29.4238C28.5307 24.015 25.4236 21.3053 19.2654 21.3053H10.6532ZM41.796 22.1129V31.2941H50.6939C50.0562 35.1408 46.9847 38.0949 43.1021 38.0949C41.7348 38.0949 40.4643 37.7124 39.347 37.0748C39.296 37.0429 39.2399 37.0163 39.1837 36.9898V22.878C39.2246 22.8515 39.2654 22.8249 39.3062 22.793C40.046 22.3626 40.9337 22.2723 41.796 22.1129ZM16.1634 25.7259H18.3267C21.2552 25.7259 22.7348 27.0223 22.7348 29.6364C22.7348 32.3089 21.2552 33.6319 18.3267 33.6319H16.1634V25.7259Z" fill="black"/>
</svg>
