<svg width="63" height="68" viewBox="0 0 63 68" fill="none" xmlns="http://www.w3.org/2000/svg">
<path d="M37.1251 0.0101772C37.1 0.0208035 37.0698 0.036743 37.0447 0.0526825L1.04481 7.27858C0.432087 7.40078 -0.00987682 7.9746 0.000167798 8.63875V59.3901C-0.00987682 60.0542 0.432087 60.628 1.04481 60.7502L37.0447 67.9761C37.4164 68.0505 37.8031 67.9496 38.0994 67.6945C38.3907 67.4395 38.5665 67.0623 38.5715 66.6585V59.8576H60.4286C61.8348 59.8576 63 58.625 63 57.1373V10.8915C63 9.40385 61.8348 8.17119 60.4286 8.17119H38.5715V1.37035C38.5765 0.977173 38.4158 0.605251 38.1396 0.344907C37.8633 0.0845614 37.4917 -0.0376413 37.1251 0.0101772ZM36.0001 2.98555V9.10631C35.9247 9.37197 35.9247 9.64825 36.0001 9.91391V58.2424C35.9649 58.4231 35.9649 58.6143 36.0001 58.795V65.0433L2.57159 58.2849V9.74389L36.0001 2.98555ZM38.5715 10.8915H60.4286V57.1373H38.5715V50.3364H56.5714V47.6161H38.5715V39.4551H56.5714V36.7347H38.5715V29.9339H56.5714V27.2136H38.5715V20.4127H56.5714V17.6924H38.5715V10.8915ZM5.94658 21.3053L10.8484 46.7235H15.6698L18.8439 30.444C18.9895 29.6948 19.1251 28.7119 19.2055 27.5536H19.2457C19.2808 28.6056 19.3612 29.5939 19.5269 30.444L22.6206 46.7235H27.2813L32.2233 21.3053H27.9644L25.393 38.2649C25.2423 39.2213 25.1469 40.1777 25.1117 41.1128H25.0715C24.9862 39.9173 24.9008 39.0194 24.7903 38.3924L21.7367 21.3053H17.2367L13.8617 38.1799C13.6458 39.2585 13.4951 40.2467 13.46 41.1553H13.3796C13.3294 39.9386 13.254 38.945 13.1385 38.2224L10.5269 21.3053H5.94658Z" fill="black"/>
</svg>
